<svg xmlns="http://www.w3.org/2000/svg" viewBox="0 0 240 240" width="240" height="240">
  <rect width="240" height="240" fill="#ffffff"/>
  <!-- corner finders -->
  <g fill="#050505">
    <rect x="12" y="12" width="56" height="56"/>
    <rect x="172" y="12" width="56" height="56"/>
    <rect x="12" y="172" width="56" height="56"/>
  </g>
  <g fill="#ffffff">
    <rect x="20" y="20" width="40" height="40"/>
    <rect x="180" y="20" width="40" height="40"/>
    <rect x="20" y="180" width="40" height="40"/>
  </g>
  <g fill="#050505">
    <rect x="28" y="28" width="24" height="24"/>
    <rect x="188" y="28" width="24" height="24"/>
    <rect x="28" y="188" width="24" height="24"/>
  </g>
  <!-- random-ish data dots -->
  <g fill="#050505">
    <rect x="84" y="12" width="8" height="8"/><rect x="100" y="20" width="8" height="8"/><rect x="116" y="12" width="8" height="8"/>
    <rect x="132" y="28" width="8" height="8"/><rect x="148" y="20" width="8" height="8"/><rect x="84" y="36" width="8" height="8"/>
    <rect x="100" y="44" width="8" height="8"/><rect x="116" y="52" width="8" height="8"/><rect x="132" y="60" width="8" height="8"/>
    <rect x="20" y="84" width="8" height="8"/><rect x="36" y="92" width="8" height="8"/><rect x="52" y="100" width="8" height="8"/>
    <rect x="68" y="84" width="8" height="8"/><rect x="84" y="92" width="8" height="8"/><rect x="100" y="100" width="8" height="8"/>
    <rect x="116" y="108" width="8" height="8"/><rect x="132" y="116" width="8" height="8"/><rect x="148" y="100" width="8" height="8"/>
    <rect x="164" y="92" width="8" height="8"/><rect x="180" y="100" width="8" height="8"/><rect x="196" y="108" width="8" height="8"/>
    <rect x="212" y="84" width="8" height="8"/><rect x="20" y="116" width="8" height="8"/><rect x="36" y="124" width="8" height="8"/>
    <rect x="52" y="132" width="8" height="8"/><rect x="68" y="140" width="8" height="8"/><rect x="84" y="148" width="8" height="8"/>
    <rect x="100" y="156" width="8" height="8"/><rect x="116" y="164" width="8" height="8"/><rect x="132" y="156" width="8" height="8"/>
    <rect x="148" y="148" width="8" height="8"/><rect x="164" y="140" width="8" height="8"/><rect x="180" y="148" width="8" height="8"/>
    <rect x="196" y="156" width="8" height="8"/><rect x="212" y="164" width="8" height="8"/><rect x="84" y="172" width="8" height="8"/>
    <rect x="100" y="180" width="8" height="8"/><rect x="116" y="188" width="8" height="8"/><rect x="132" y="196" width="8" height="8"/>
    <rect x="148" y="204" width="8" height="8"/><rect x="164" y="212" width="8" height="8"/><rect x="180" y="220" width="8" height="8"/>
    <rect x="196" y="212" width="8" height="8"/><rect x="212" y="204" width="8" height="8"/>
  </g>
  <!-- center CG badge -->
  <g>
    <circle cx="120" cy="120" r="26" fill="#F59E0B"/>
    <text x="120" y="128" text-anchor="middle" font-family="Outfit, Arial, sans-serif" font-weight="900" font-size="22" fill="#050505">CG</text>
  </g>
</svg>
